<svg width="461" height="84" viewBox="0 0 461 84" fill="none" xmlns="http://www.w3.org/2000/svg">
<line y1="52.5" x2="461" y2="52.5" stroke="white"/>
<path d="M8.729 26.219L7.396 30.519H15.867L14.534 26.219C14.018 24.6423 13.5307 23.08 13.072 21.532C12.6133 19.9553 12.1547 18.35 11.696 16.716H11.524C11.094 18.35 10.6497 19.9553 10.191 21.532C9.73233 23.08 9.245 24.6423 8.729 26.219ZM0.129 42L9.675 13.792H13.717L23.263 42H19.436L16.77 33.4H6.493L3.784 42H0.129ZM29.8396 42V13.792H33.5376L43.7286 31.508L46.7816 37.356H46.9536C46.8676 35.9227 46.7673 34.4463 46.6526 32.927C46.5666 31.379 46.5236 29.8597 46.5236 28.369V13.792H49.9207V42H46.2226L35.9886 24.241L32.9356 18.436H32.7636C32.8783 19.8693 32.9786 21.3313 33.0646 22.822C33.1793 24.284 33.2366 25.7603 33.2366 27.251V42H29.8396ZM66.1085 42V16.802H57.5945V13.792H78.2345V16.802H69.7205V42H66.1085ZM95.2504 42.516C93.473 42.516 91.839 42.172 90.3484 41.484C88.8864 40.796 87.625 39.8213 86.5644 38.56C85.5037 37.27 84.6724 35.722 84.0704 33.916C83.497 32.0813 83.2104 30.0317 83.2104 27.767C83.2104 25.5023 83.497 23.4813 84.0704 21.704C84.6724 19.898 85.5037 18.3787 86.5644 17.146C87.625 15.8847 88.8864 14.9243 90.3484 14.265C91.839 13.6057 93.473 13.276 95.2504 13.276C97.0277 13.276 98.6474 13.62 100.109 14.308C101.6 14.9673 102.876 15.9277 103.936 17.189C105.026 18.4217 105.857 19.941 106.43 21.747C107.032 23.5243 107.333 25.531 107.333 27.767C107.333 30.0317 107.032 32.0813 106.43 33.916C105.857 35.722 105.026 37.27 103.936 38.56C102.876 39.8213 101.6 40.796 100.109 41.484C98.6474 42.172 97.0277 42.516 95.2504 42.516ZM95.2504 39.377C96.5117 39.377 97.644 39.1047 98.6474 38.56C99.6794 38.0153 100.554 37.2413 101.27 36.238C102.016 35.206 102.589 33.9877 102.99 32.583C103.392 31.1497 103.592 29.5443 103.592 27.767C103.592 26.0183 103.392 24.4417 102.99 23.037C102.589 21.6323 102.016 20.4427 101.27 19.468C100.554 18.4933 99.6794 17.748 98.6474 17.232C97.644 16.6873 96.5117 16.415 95.2504 16.415C93.989 16.415 92.8424 16.6873 91.8104 17.232C90.807 17.748 89.9327 18.4933 89.1874 19.468C88.4707 20.4427 87.9117 21.6323 87.5104 23.037C87.109 24.4417 86.9084 26.0183 86.9084 27.767C86.9084 29.5443 87.109 31.1497 87.5104 32.583C87.9117 33.9877 88.4707 35.206 89.1874 36.238C89.9327 37.2413 90.807 38.0153 91.8104 38.56C92.8424 39.1047 93.989 39.377 95.2504 39.377ZM115.979 42V13.792H119.677L129.868 31.508L132.921 37.356H133.093C133.007 35.9227 132.907 34.4463 132.792 32.927C132.706 31.379 132.663 29.8597 132.663 28.369V13.792H136.06V42H132.362L122.128 24.241L119.075 18.436H118.903C119.018 19.8693 119.118 21.3313 119.204 22.822C119.319 24.284 119.376 25.7603 119.376 27.251V42H115.979ZM146.4 42V13.792H149.969V42H146.4ZM160.276 42V13.792H163.974L174.165 31.508L177.218 37.356H177.39C177.304 35.9227 177.203 34.4463 177.089 32.927C177.003 31.379 176.96 29.8597 176.96 28.369V13.792H180.357V42H176.659L166.425 24.241L163.372 18.436H163.2C163.314 19.8693 163.415 21.3313 163.501 22.822C163.615 24.284 163.673 25.7603 163.673 27.251V42H160.276ZM195.556 26.219L194.223 30.519H202.694L201.361 26.219C200.845 24.6423 200.357 23.08 199.899 21.532C199.44 19.9553 198.981 18.35 198.523 16.716H198.351C197.921 18.35 197.476 19.9553 197.018 21.532C196.559 23.08 196.072 24.6423 195.556 26.219ZM186.956 42L196.502 13.792H200.544L210.09 42H206.263L203.597 33.4H193.32L190.611 42H186.956ZM227.855 42V13.792H235.896C237.472 13.792 238.906 13.9353 240.196 14.222C241.514 14.5087 242.632 14.9817 243.55 15.641C244.467 16.2717 245.184 17.1173 245.7 18.178C246.216 19.2387 246.474 20.543 246.474 22.091C246.474 23.5817 246.216 24.8717 245.7 25.961C245.212 27.0503 244.51 27.9533 243.593 28.67C242.675 29.3867 241.572 29.9313 240.282 30.304C239.02 30.648 237.616 30.82 236.068 30.82H231.424V42H227.855ZM231.424 27.896H235.638C238.103 27.896 239.923 27.4373 241.099 26.52C242.303 25.574 242.905 24.0977 242.905 22.091C242.905 20.0557 242.274 18.651 241.013 17.877C239.78 17.0743 237.931 16.673 235.466 16.673H231.424V27.896ZM265.196 42.516C263.419 42.516 261.785 42.172 260.294 41.484C258.832 40.796 257.571 39.8213 256.51 38.56C255.449 37.27 254.618 35.722 254.016 33.916C253.443 32.0813 253.156 30.0317 253.156 27.767C253.156 25.5023 253.443 23.4813 254.016 21.704C254.618 19.898 255.449 18.3787 256.51 17.146C257.571 15.8847 258.832 14.9243 260.294 14.265C261.785 13.6057 263.419 13.276 265.196 13.276C266.973 13.276 268.593 13.62 270.055 14.308C271.546 14.9673 272.821 15.9277 273.882 17.189C274.971 18.4217 275.803 19.941 276.376 21.747C276.978 23.5243 277.279 25.531 277.279 27.767C277.279 30.0317 276.978 32.0813 276.376 33.916C275.803 35.722 274.971 37.27 273.882 38.56C272.821 39.8213 271.546 40.796 270.055 41.484C268.593 42.172 266.973 42.516 265.196 42.516ZM265.196 39.377C266.457 39.377 267.59 39.1047 268.593 38.56C269.625 38.0153 270.499 37.2413 271.216 36.238C271.961 35.206 272.535 33.9877 272.936 32.583C273.337 31.1497 273.538 29.5443 273.538 27.767C273.538 26.0183 273.337 24.4417 272.936 23.037C272.535 21.6323 271.961 20.4427 271.216 19.468C270.499 18.4933 269.625 17.748 268.593 17.232C267.59 16.6873 266.457 16.415 265.196 16.415C263.935 16.415 262.788 16.6873 261.756 17.232C260.753 17.748 259.878 18.4933 259.133 19.468C258.416 20.4427 257.857 21.6323 257.456 23.037C257.055 24.4417 256.854 26.0183 256.854 27.767C256.854 29.5443 257.055 31.1497 257.456 32.583C257.857 33.9877 258.416 35.206 259.133 36.238C259.878 37.2413 260.753 38.0153 261.756 38.56C262.788 39.1047 263.935 39.377 265.196 39.377ZM285.925 42V13.792H289.494V38.947H301.835V42H285.925ZM318.176 42.516C316.743 42.516 315.395 42.3153 314.134 41.914C312.901 41.484 311.826 40.796 310.909 39.85C310.02 38.8753 309.318 37.614 308.802 36.066C308.286 34.518 308.028 32.6117 308.028 30.347V13.792H311.597V30.433C311.597 32.1243 311.769 33.5433 312.113 34.69C312.457 35.8367 312.916 36.754 313.489 37.442C314.091 38.13 314.793 38.6317 315.596 38.947C316.399 39.2337 317.259 39.377 318.176 39.377C319.122 39.377 319.996 39.2337 320.799 38.947C321.602 38.6317 322.304 38.13 322.906 37.442C323.508 36.754 323.981 35.8367 324.325 34.69C324.669 33.5433 324.841 32.1243 324.841 30.433V13.792H328.281V30.347C328.281 32.6117 328.023 34.518 327.507 36.066C326.991 37.614 326.274 38.8753 325.357 39.85C324.468 40.796 323.408 41.484 322.175 41.914C320.942 42.3153 319.609 42.516 318.176 42.516ZM338.452 42V13.792H342.021V27.939H342.15L353.889 13.792H357.931L349.116 24.542L359.307 42H355.308L346.88 27.337L342.021 33.056V42H338.452ZM365.933 42V13.792H369.502V25.617H382.617V13.792H386.229V42H382.617V28.713H369.502V42H365.933ZM396.564 42V13.792H400.133V42H396.564ZM410.44 42V13.792H414.138L424.329 31.508L427.382 37.356H427.554C427.468 35.9227 427.368 34.4463 427.253 32.927C427.167 31.379 427.124 29.8597 427.124 28.369V13.792H430.521V42H426.823L416.589 24.241L413.536 18.436H413.364C413.479 19.8693 413.579 21.3313 413.665 22.822C413.78 24.284 413.837 25.7603 413.837 27.251V42H410.44ZM445.72 26.219L444.387 30.519H452.858L451.525 26.219C451.009 24.6423 450.522 23.08 450.063 21.532C449.604 19.9553 449.146 18.35 448.687 16.716H448.515C448.085 18.35 447.641 19.9553 447.182 21.532C446.723 23.08 446.236 24.6423 445.72 26.219ZM437.12 42L446.666 13.792H450.708L460.254 42H456.427L453.761 33.4H443.484L440.775 42H437.12Z" fill="white"/>
<path d="M156.18 79L153.48 69.28H155.16L156.6 74.9C156.707 75.3667 156.807 75.82 156.9 76.26C156.993 76.7 157.087 77.1467 157.18 77.6H157.26C157.367 77.1467 157.473 76.7 157.58 76.26C157.687 75.8067 157.8 75.3533 157.92 74.9L159.42 69.28H161.02L162.54 74.9C162.66 75.3667 162.773 75.82 162.88 76.26C163 76.7 163.113 77.1467 163.22 77.6H163.3C163.407 77.1467 163.507 76.7 163.6 76.26C163.693 75.82 163.793 75.3667 163.9 74.9L165.32 69.28H166.88L164.28 79H162.28L160.88 73.78C160.76 73.3133 160.647 72.8533 160.54 72.4C160.447 71.9467 160.34 71.4733 160.22 70.98H160.14C160.033 71.4733 159.927 71.9533 159.82 72.42C159.713 72.8733 159.593 73.3333 159.46 73.8L158.1 79H156.18ZM173.657 79.24C173.004 79.24 172.391 79.1267 171.817 78.9C171.257 78.66 170.764 78.3267 170.337 77.9C169.924 77.46 169.597 76.9267 169.357 76.3C169.117 75.6733 168.997 74.96 168.997 74.16C168.997 73.36 169.117 72.6467 169.357 72.02C169.611 71.38 169.937 70.84 170.337 70.4C170.751 69.96 171.217 69.6267 171.737 69.4C172.257 69.16 172.797 69.04 173.357 69.04C173.971 69.04 174.517 69.1467 174.997 69.36C175.491 69.5733 175.897 69.88 176.217 70.28C176.551 70.68 176.804 71.16 176.977 71.72C177.151 72.28 177.237 72.9067 177.237 73.6C177.237 73.7733 177.231 73.9467 177.217 74.12C177.217 74.28 177.204 74.42 177.177 74.54H170.617C170.684 75.58 171.004 76.4067 171.577 77.02C172.164 77.62 172.924 77.92 173.857 77.92C174.324 77.92 174.751 77.8533 175.137 77.72C175.537 77.5733 175.917 77.3867 176.277 77.16L176.857 78.24C176.431 78.5067 175.957 78.74 175.437 78.94C174.917 79.14 174.324 79.24 173.657 79.24ZM170.597 73.36H175.797C175.797 72.3733 175.584 71.6267 175.157 71.12C174.744 70.6 174.157 70.34 173.397 70.34C173.051 70.34 172.717 70.4067 172.397 70.54C172.091 70.6733 171.811 70.8733 171.557 71.14C171.304 71.3933 171.091 71.7067 170.917 72.08C170.757 72.4533 170.651 72.88 170.597 73.36ZM183.759 79.24C182.533 79.24 181.553 78.8 180.819 77.92C180.099 77.04 179.739 75.7867 179.739 74.16C179.739 73.3733 179.853 72.6667 180.079 72.04C180.319 71.4 180.633 70.86 181.019 70.42C181.406 69.98 181.853 69.64 182.359 69.4C182.866 69.16 183.399 69.04 183.959 69.04C184.519 69.04 185.006 69.14 185.419 69.34C185.833 69.54 186.253 69.8133 186.679 70.16L186.599 68.5V64.76H188.259V79H186.899L186.759 77.86H186.699C186.313 78.2333 185.866 78.56 185.359 78.84C184.866 79.1067 184.333 79.24 183.759 79.24ZM184.119 77.86C184.573 77.86 184.999 77.7533 185.399 77.54C185.799 77.3133 186.199 76.9733 186.599 76.52V71.44C186.186 71.0667 185.786 70.8067 185.399 70.66C185.026 70.5 184.639 70.42 184.239 70.42C183.853 70.42 183.486 70.5133 183.139 70.7C182.806 70.8733 182.513 71.1267 182.259 71.46C182.006 71.78 181.806 72.1667 181.659 72.62C181.513 73.0733 181.439 73.58 181.439 74.14C181.439 75.3133 181.673 76.2267 182.139 76.88C182.606 77.5333 183.266 77.86 184.119 77.86ZM195.653 79.24C194.426 79.24 193.446 78.8 192.713 77.92C191.993 77.04 191.633 75.7867 191.633 74.16C191.633 73.3733 191.746 72.6667 191.973 72.04C192.213 71.4 192.526 70.86 192.913 70.42C193.3 69.98 193.746 69.64 194.253 69.4C194.76 69.16 195.293 69.04 195.853 69.04C196.413 69.04 196.9 69.14 197.313 69.34C197.726 69.54 198.146 69.8133 198.573 70.16L198.493 68.5V64.76H200.153V79H198.793L198.653 77.86H198.593C198.206 78.2333 197.76 78.56 197.253 78.84C196.76 79.1067 196.226 79.24 195.653 79.24ZM196.013 77.86C196.466 77.86 196.893 77.7533 197.293 77.54C197.693 77.3133 198.093 76.9733 198.493 76.52V71.44C198.08 71.0667 197.68 70.8067 197.293 70.66C196.92 70.5 196.533 70.42 196.133 70.42C195.746 70.42 195.38 70.5133 195.033 70.7C194.7 70.8733 194.406 71.1267 194.153 71.46C193.9 71.78 193.7 72.1667 193.553 72.62C193.406 73.0733 193.333 73.58 193.333 74.14C193.333 75.3133 193.566 76.2267 194.033 76.88C194.5 77.5333 195.16 77.86 196.013 77.86ZM204.227 79V69.28H205.867V79H204.227ZM205.067 67.28C204.747 67.28 204.473 67.18 204.247 66.98C204.033 66.78 203.927 66.5267 203.927 66.22C203.927 65.9 204.033 65.6467 204.247 65.46C204.473 65.26 204.747 65.16 205.067 65.16C205.387 65.16 205.653 65.26 205.867 65.46C206.093 65.6467 206.207 65.9 206.207 66.22C206.207 66.5267 206.093 66.78 205.867 66.98C205.653 67.18 205.387 67.28 205.067 67.28ZM209.949 79V69.28H211.309L211.449 70.68H211.509C211.975 70.2133 212.462 69.8267 212.969 69.52C213.489 69.2 214.089 69.04 214.769 69.04C215.795 69.04 216.542 69.36 217.009 70C217.489 70.64 217.729 71.5867 217.729 72.84V79H216.089V73.06C216.089 72.14 215.942 71.48 215.649 71.08C215.355 70.6667 214.889 70.46 214.249 70.46C213.742 70.46 213.295 70.5867 212.909 70.84C212.522 71.0933 212.082 71.4667 211.589 71.96V79H209.949ZM224.966 83.48C224.366 83.48 223.819 83.42 223.326 83.3C222.833 83.1933 222.406 83.0267 222.046 82.8C221.699 82.5733 221.426 82.3 221.226 81.98C221.039 81.66 220.946 81.2867 220.946 80.86C220.946 80.4467 221.073 80.0533 221.326 79.68C221.579 79.3067 221.926 78.9667 222.366 78.66V78.58C222.126 78.4333 221.919 78.2333 221.746 77.98C221.586 77.7133 221.506 77.3867 221.506 77C221.506 76.5867 221.619 76.2267 221.846 75.92C222.073 75.6133 222.313 75.3733 222.566 75.2V75.12C222.246 74.8533 221.953 74.5 221.686 74.06C221.433 73.6067 221.306 73.0867 221.306 72.5C221.306 71.9667 221.399 71.4867 221.586 71.06C221.786 70.6333 222.053 70.2733 222.386 69.98C222.719 69.6733 223.106 69.44 223.546 69.28C223.999 69.12 224.473 69.04 224.966 69.04C225.233 69.04 225.479 69.0667 225.706 69.12C225.946 69.16 226.159 69.2133 226.346 69.28H229.726V70.54H227.726C227.953 70.7667 228.139 71.0533 228.286 71.4C228.446 71.7467 228.526 72.1267 228.526 72.54C228.526 73.06 228.433 73.5333 228.246 73.96C228.059 74.3733 227.806 74.7267 227.486 75.02C227.166 75.3 226.786 75.52 226.346 75.68C225.919 75.84 225.459 75.92 224.966 75.92C224.726 75.92 224.479 75.8933 224.226 75.84C223.973 75.7733 223.733 75.6867 223.506 75.58C223.333 75.7267 223.186 75.8933 223.066 76.08C222.946 76.2533 222.886 76.4733 222.886 76.74C222.886 77.0467 223.006 77.3 223.246 77.5C223.486 77.7 223.939 77.8 224.606 77.8H226.486C227.619 77.8 228.466 77.9867 229.026 78.36C229.599 78.72 229.886 79.3067 229.886 80.12C229.886 80.5733 229.773 81 229.546 81.4C229.319 81.8133 228.993 82.1733 228.566 82.48C228.139 82.7867 227.619 83.0267 227.006 83.2C226.406 83.3867 225.726 83.48 224.966 83.48ZM224.966 74.82C225.246 74.82 225.506 74.7667 225.746 74.66C225.999 74.5533 226.219 74.4 226.406 74.2C226.606 74 226.759 73.76 226.866 73.48C226.973 73.1867 227.026 72.86 227.026 72.5C227.026 71.78 226.826 71.2267 226.426 70.84C226.026 70.44 225.539 70.24 224.966 70.24C224.393 70.24 223.906 70.44 223.506 70.84C223.106 71.2267 222.906 71.78 222.906 72.5C222.906 72.86 222.959 73.1867 223.066 73.48C223.173 73.76 223.319 74 223.506 74.2C223.706 74.4 223.926 74.5533 224.166 74.66C224.419 74.7667 224.686 74.82 224.966 74.82ZM225.206 82.34C225.673 82.34 226.093 82.28 226.466 82.16C226.853 82.0533 227.179 81.9067 227.446 81.72C227.713 81.5467 227.919 81.34 228.066 81.1C228.213 80.86 228.286 80.6133 228.286 80.36C228.286 79.9067 228.119 79.5933 227.786 79.42C227.453 79.2467 226.966 79.16 226.326 79.16H224.646C224.459 79.16 224.253 79.1467 224.026 79.12C223.813 79.1067 223.599 79.0667 223.386 79C223.039 79.2533 222.786 79.52 222.626 79.8C222.466 80.08 222.386 80.36 222.386 80.64C222.386 81.16 222.633 81.5733 223.126 81.88C223.633 82.1867 224.326 82.34 225.206 82.34ZM239.608 79.24C238.795 79.24 238.115 79 237.568 78.52C237.035 78.04 236.768 77.36 236.768 76.48C236.768 75.4133 237.241 74.6 238.188 74.04C239.135 73.4667 240.648 73.0667 242.728 72.84C242.728 72.5333 242.695 72.2333 242.628 71.94C242.575 71.6467 242.475 71.3867 242.328 71.16C242.181 70.9333 241.975 70.7533 241.708 70.62C241.455 70.4733 241.128 70.4 240.728 70.4C240.168 70.4 239.641 70.5067 239.148 70.72C238.655 70.9333 238.215 71.1733 237.828 71.44L237.188 70.3C237.641 70.0067 238.195 69.7267 238.848 69.46C239.501 69.18 240.221 69.04 241.008 69.04C242.195 69.04 243.055 69.4067 243.588 70.14C244.121 70.86 244.388 71.8267 244.388 73.04V79H243.028L242.888 77.84H242.828C242.361 78.2267 241.861 78.56 241.328 78.84C240.795 79.1067 240.221 79.24 239.608 79.24ZM240.088 77.92C240.555 77.92 240.995 77.8133 241.408 77.6C241.821 77.3733 242.261 77.0467 242.728 76.62V73.92C241.915 74.0267 241.228 74.1533 240.668 74.3C240.121 74.4467 239.675 74.62 239.328 74.82C238.995 75.02 238.748 75.2533 238.588 75.52C238.441 75.7733 238.368 76.0533 238.368 76.36C238.368 76.92 238.535 77.32 238.868 77.56C239.201 77.8 239.608 77.92 240.088 77.92ZM248.246 79V69.28H249.606L249.746 70.68H249.806C250.273 70.2133 250.76 69.8267 251.266 69.52C251.786 69.2 252.386 69.04 253.066 69.04C254.093 69.04 254.84 69.36 255.306 70C255.786 70.64 256.026 71.5867 256.026 72.84V79H254.386V73.06C254.386 72.14 254.24 71.48 253.946 71.08C253.653 70.6667 253.186 70.46 252.546 70.46C252.04 70.46 251.593 70.5867 251.206 70.84C250.82 71.0933 250.38 71.4667 249.886 71.96V79H248.246ZM263.304 79.24C262.077 79.24 261.097 78.8 260.364 77.92C259.644 77.04 259.284 75.7867 259.284 74.16C259.284 73.3733 259.397 72.6667 259.624 72.04C259.864 71.4 260.177 70.86 260.564 70.42C260.95 69.98 261.397 69.64 261.904 69.4C262.41 69.16 262.944 69.04 263.504 69.04C264.064 69.04 264.55 69.14 264.964 69.34C265.377 69.54 265.797 69.8133 266.224 70.16L266.144 68.5V64.76H267.804V79H266.444L266.304 77.86H266.244C265.857 78.2333 265.41 78.56 264.904 78.84C264.41 79.1067 263.877 79.24 263.304 79.24ZM263.664 77.86C264.117 77.86 264.544 77.7533 264.944 77.54C265.344 77.3133 265.744 76.9733 266.144 76.52V71.44C265.73 71.0667 265.33 70.8067 264.944 70.66C264.57 70.5 264.184 70.42 263.784 70.42C263.397 70.42 263.03 70.5133 262.684 70.7C262.35 70.8733 262.057 71.1267 261.804 71.46C261.55 71.78 261.35 72.1667 261.204 72.62C261.057 73.0733 260.984 73.58 260.984 74.14C260.984 75.3133 261.217 76.2267 261.684 76.88C262.15 77.5333 262.81 77.86 263.664 77.86ZM276.961 79V70.62H275.641V69.38L276.961 69.28V67.74C276.961 66.74 277.188 65.9533 277.641 65.38C278.108 64.8067 278.828 64.52 279.801 64.52C280.108 64.52 280.395 64.5533 280.661 64.62C280.941 64.6733 281.195 64.7467 281.421 64.84L281.061 66.1C280.701 65.94 280.335 65.86 279.961 65.86C279.055 65.86 278.601 66.4867 278.601 67.74V69.28H280.661V70.62H278.601V79H276.961ZM285.171 79.24C284.357 79.24 283.677 79 283.131 78.52C282.597 78.04 282.331 77.36 282.331 76.48C282.331 75.4133 282.804 74.6 283.751 74.04C284.697 73.4667 286.211 73.0667 288.291 72.84C288.291 72.5333 288.257 72.2333 288.191 71.94C288.137 71.6467 288.037 71.3867 287.891 71.16C287.744 70.9333 287.537 70.7533 287.271 70.62C287.017 70.4733 286.691 70.4 286.291 70.4C285.731 70.4 285.204 70.5067 284.711 70.72C284.217 70.9333 283.777 71.1733 283.391 71.44L282.751 70.3C283.204 70.0067 283.757 69.7267 284.411 69.46C285.064 69.18 285.784 69.04 286.571 69.04C287.757 69.04 288.617 69.4067 289.151 70.14C289.684 70.86 289.951 71.8267 289.951 73.04V79H288.591L288.451 77.84H288.391C287.924 78.2267 287.424 78.56 286.891 78.84C286.357 79.1067 285.784 79.24 285.171 79.24ZM285.651 77.92C286.117 77.92 286.557 77.8133 286.971 77.6C287.384 77.3733 287.824 77.0467 288.291 76.62V73.92C287.477 74.0267 286.791 74.1533 286.231 74.3C285.684 74.4467 285.237 74.62 284.891 74.82C284.557 75.02 284.311 75.2533 284.151 75.52C284.004 75.7733 283.931 76.0533 283.931 76.36C283.931 76.92 284.097 77.32 284.431 77.56C284.764 77.8 285.171 77.92 285.651 77.92ZM293.809 79V69.28H295.169L295.309 70.68H295.369C295.795 70.2133 296.255 69.8267 296.749 69.52C297.255 69.2 297.802 69.04 298.389 69.04C299.135 69.04 299.715 69.2067 300.129 69.54C300.555 69.86 300.869 70.3133 301.069 70.9C301.575 70.34 302.082 69.8933 302.589 69.56C303.109 69.2133 303.669 69.04 304.269 69.04C305.269 69.04 306.009 69.36 306.489 70C306.982 70.64 307.229 71.5867 307.229 72.84V79H305.589V73.06C305.589 72.14 305.442 71.48 305.149 71.08C304.855 70.6667 304.402 70.46 303.789 70.46C303.055 70.46 302.242 70.96 301.349 71.96V79H299.709V73.06C299.709 72.14 299.562 71.48 299.269 71.08C298.975 70.6667 298.515 70.46 297.889 70.46C297.155 70.46 296.342 70.96 295.449 71.96V79H293.809ZM311.191 79V69.28H312.831V79H311.191ZM312.031 67.28C311.711 67.28 311.437 67.18 311.211 66.98C310.997 66.78 310.891 66.5267 310.891 66.22C310.891 65.9 310.997 65.6467 311.211 65.46C311.437 65.26 311.711 65.16 312.031 65.16C312.351 65.16 312.617 65.26 312.831 65.46C313.057 65.6467 313.171 65.9 313.171 66.22C313.171 66.5267 313.057 66.78 312.831 66.98C312.617 67.18 312.351 67.28 312.031 67.28ZM318.653 79.24C318.026 79.24 317.579 79.0533 317.313 78.68C317.046 78.3067 316.913 77.76 316.913 77.04V64.76H318.553V77.16C318.553 77.4267 318.599 77.6133 318.693 77.72C318.786 77.8267 318.893 77.88 319.013 77.88C319.066 77.88 319.113 77.88 319.153 77.88C319.206 77.88 319.279 77.8667 319.373 77.84L319.593 79.08C319.486 79.1333 319.359 79.1733 319.213 79.2C319.066 79.2267 318.879 79.24 318.653 79.24ZM322.97 83.18C322.744 83.18 322.537 83.16 322.35 83.12C322.164 83.0933 321.99 83.0467 321.83 82.98L322.15 81.68C322.257 81.7067 322.377 81.7333 322.51 81.76C322.644 81.8 322.77 81.82 322.89 81.82C323.45 81.82 323.904 81.62 324.25 81.22C324.61 80.8333 324.89 80.34 325.09 79.74L325.31 79.02L321.41 69.28H323.11L325.09 74.66C325.237 75.0867 325.39 75.54 325.55 76.02C325.724 76.4867 325.884 76.9467 326.03 77.4H326.11C326.257 76.96 326.397 76.5 326.53 76.02C326.664 75.54 326.797 75.0867 326.93 74.66L328.67 69.28H330.27L326.61 79.8C326.437 80.28 326.244 80.7267 326.03 81.14C325.817 81.5533 325.564 81.9067 325.27 82.2C324.977 82.5067 324.644 82.7467 324.27 82.92C323.897 83.0933 323.464 83.18 322.97 83.18ZM337.75 83.1V69.28H339.11L339.25 70.4H339.31C339.75 70.0267 340.23 69.7067 340.75 69.44C341.283 69.1733 341.837 69.04 342.41 69.04C343.037 69.04 343.59 69.16 344.07 69.4C344.55 69.6267 344.95 69.96 345.27 70.4C345.59 70.8267 345.83 71.3467 345.99 71.96C346.163 72.56 346.25 73.24 346.25 74C346.25 74.8267 346.137 75.5667 345.91 76.22C345.683 76.86 345.377 77.4067 344.99 77.86C344.603 78.3133 344.157 78.66 343.65 78.9C343.143 79.1267 342.61 79.24 342.05 79.24C341.597 79.24 341.143 79.14 340.69 78.94C340.25 78.74 339.803 78.4667 339.35 78.12L339.39 79.82V83.1H337.75ZM341.77 77.86C342.17 77.86 342.537 77.7733 342.87 77.6C343.217 77.4133 343.51 77.16 343.75 76.84C344.003 76.5067 344.197 76.1 344.33 75.62C344.477 75.14 344.55 74.6 344.55 74C344.55 73.4667 344.503 72.98 344.41 72.54C344.317 72.1 344.163 71.7267 343.95 71.42C343.75 71.1 343.483 70.8533 343.15 70.68C342.83 70.5067 342.443 70.42 341.99 70.42C341.577 70.42 341.157 70.5333 340.73 70.76C340.317 70.9867 339.87 71.3133 339.39 71.74V76.84C339.83 77.2133 340.257 77.48 340.67 77.64C341.083 77.7867 341.45 77.86 341.77 77.86ZM349.644 79V64.76H351.284V68.64L351.224 70.64C351.691 70.2 352.177 69.8267 352.684 69.52C353.191 69.2 353.784 69.04 354.464 69.04C355.491 69.04 356.237 69.36 356.704 70C357.184 70.64 357.424 71.5867 357.424 72.84V79H355.784V73.06C355.784 72.14 355.637 71.48 355.344 71.08C355.051 70.6667 354.584 70.46 353.944 70.46C353.437 70.46 352.991 70.5867 352.604 70.84C352.217 71.0933 351.777 71.4667 351.284 71.96V79H349.644ZM365.103 79.24C364.503 79.24 363.929 79.1267 363.383 78.9C362.849 78.6733 362.376 78.3467 361.963 77.92C361.549 77.48 361.216 76.9467 360.963 76.32C360.723 75.68 360.603 74.96 360.603 74.16C360.603 73.3467 360.723 72.6267 360.963 72C361.216 71.36 361.549 70.82 361.963 70.38C362.376 69.94 362.849 69.6067 363.383 69.38C363.929 69.1533 364.503 69.04 365.103 69.04C365.703 69.04 366.269 69.1533 366.803 69.38C367.349 69.6067 367.829 69.94 368.243 70.38C368.656 70.82 368.983 71.36 369.223 72C369.476 72.6267 369.603 73.3467 369.603 74.16C369.603 74.96 369.476 75.68 369.223 76.32C368.983 76.9467 368.656 77.48 368.243 77.92C367.829 78.3467 367.349 78.6733 366.803 78.9C366.269 79.1267 365.703 79.24 365.103 79.24ZM365.103 77.88C365.516 77.88 365.896 77.7933 366.243 77.62C366.589 77.4333 366.883 77.18 367.123 76.86C367.376 76.5267 367.569 76.1333 367.703 75.68C367.836 75.2267 367.903 74.72 367.903 74.16C367.903 73.6 367.836 73.0933 367.703 72.64C367.569 72.1733 367.376 71.7733 367.123 71.44C366.883 71.1067 366.589 70.8533 366.243 70.68C365.896 70.4933 365.516 70.4 365.103 70.4C364.689 70.4 364.309 70.4933 363.963 70.68C363.616 70.8533 363.316 71.1067 363.063 71.44C362.823 71.7733 362.636 72.1733 362.503 72.64C362.369 73.0933 362.303 73.6 362.303 74.16C362.303 74.72 362.369 75.2267 362.503 75.68C362.636 76.1333 362.823 76.5267 363.063 76.86C363.316 77.18 363.616 77.4333 363.963 77.62C364.309 77.7933 364.689 77.88 365.103 77.88ZM375.691 79.24C375.171 79.24 374.731 79.16 374.371 79C374.024 78.84 373.737 78.62 373.511 78.34C373.297 78.06 373.144 77.72 373.051 77.32C372.957 76.92 372.911 76.48 372.911 76V70.62H371.471V69.38L372.991 69.28L373.191 66.56H374.571V69.28H377.191V70.62H374.571V76.02C374.571 76.62 374.677 77.0867 374.891 77.42C375.117 77.74 375.511 77.9 376.071 77.9C376.244 77.9 376.431 77.8733 376.631 77.82C376.831 77.7667 377.011 77.7067 377.171 77.64L377.491 78.88C377.224 78.9733 376.931 79.0533 376.611 79.12C376.304 79.2 375.997 79.24 375.691 79.24ZM383.695 79.24C383.095 79.24 382.522 79.1267 381.975 78.9C381.442 78.6733 380.968 78.3467 380.555 77.92C380.142 77.48 379.808 76.9467 379.555 76.32C379.315 75.68 379.195 74.96 379.195 74.16C379.195 73.3467 379.315 72.6267 379.555 72C379.808 71.36 380.142 70.82 380.555 70.38C380.968 69.94 381.442 69.6067 381.975 69.38C382.522 69.1533 383.095 69.04 383.695 69.04C384.295 69.04 384.862 69.1533 385.395 69.38C385.942 69.6067 386.422 69.94 386.835 70.38C387.248 70.82 387.575 71.36 387.815 72C388.068 72.6267 388.195 73.3467 388.195 74.16C388.195 74.96 388.068 75.68 387.815 76.32C387.575 76.9467 387.248 77.48 386.835 77.92C386.422 78.3467 385.942 78.6733 385.395 78.9C384.862 79.1267 384.295 79.24 383.695 79.24ZM383.695 77.88C384.108 77.88 384.488 77.7933 384.835 77.62C385.182 77.4333 385.475 77.18 385.715 76.86C385.968 76.5267 386.162 76.1333 386.295 75.68C386.428 75.2267 386.495 74.72 386.495 74.16C386.495 73.6 386.428 73.0933 386.295 72.64C386.162 72.1733 385.968 71.7733 385.715 71.44C385.475 71.1067 385.182 70.8533 384.835 70.68C384.488 70.4933 384.108 70.4 383.695 70.4C383.282 70.4 382.902 70.4933 382.555 70.68C382.208 70.8533 381.908 71.1067 381.655 71.44C381.415 71.7733 381.228 72.1733 381.095 72.64C380.962 73.0933 380.895 73.6 380.895 74.16C380.895 74.72 380.962 75.2267 381.095 75.68C381.228 76.1333 381.415 76.5267 381.655 76.86C381.908 77.18 382.208 77.4333 382.555 77.62C382.902 77.7933 383.282 77.88 383.695 77.88ZM394.835 83.48C394.235 83.48 393.688 83.42 393.195 83.3C392.702 83.1933 392.275 83.0267 391.915 82.8C391.568 82.5733 391.295 82.3 391.095 81.98C390.908 81.66 390.815 81.2867 390.815 80.86C390.815 80.4467 390.942 80.0533 391.195 79.68C391.448 79.3067 391.795 78.9667 392.235 78.66V78.58C391.995 78.4333 391.788 78.2333 391.615 77.98C391.455 77.7133 391.375 77.3867 391.375 77C391.375 76.5867 391.488 76.2267 391.715 75.92C391.942 75.6133 392.182 75.3733 392.435 75.2V75.12C392.115 74.8533 391.822 74.5 391.555 74.06C391.302 73.6067 391.175 73.0867 391.175 72.5C391.175 71.9667 391.268 71.4867 391.455 71.06C391.655 70.6333 391.922 70.2733 392.255 69.98C392.588 69.6733 392.975 69.44 393.415 69.28C393.868 69.12 394.342 69.04 394.835 69.04C395.102 69.04 395.348 69.0667 395.575 69.12C395.815 69.16 396.028 69.2133 396.215 69.28H399.595V70.54H397.595C397.822 70.7667 398.008 71.0533 398.155 71.4C398.315 71.7467 398.395 72.1267 398.395 72.54C398.395 73.06 398.302 73.5333 398.115 73.96C397.928 74.3733 397.675 74.7267 397.355 75.02C397.035 75.3 396.655 75.52 396.215 75.68C395.788 75.84 395.328 75.92 394.835 75.92C394.595 75.92 394.348 75.8933 394.095 75.84C393.842 75.7733 393.602 75.6867 393.375 75.58C393.202 75.7267 393.055 75.8933 392.935 76.08C392.815 76.2533 392.755 76.4733 392.755 76.74C392.755 77.0467 392.875 77.3 393.115 77.5C393.355 77.7 393.808 77.8 394.475 77.8H396.355C397.488 77.8 398.335 77.9867 398.895 78.36C399.468 78.72 399.755 79.3067 399.755 80.12C399.755 80.5733 399.642 81 399.415 81.4C399.188 81.8133 398.862 82.1733 398.435 82.48C398.008 82.7867 397.488 83.0267 396.875 83.2C396.275 83.3867 395.595 83.48 394.835 83.48ZM394.835 74.82C395.115 74.82 395.375 74.7667 395.615 74.66C395.868 74.5533 396.088 74.4 396.275 74.2C396.475 74 396.628 73.76 396.735 73.48C396.842 73.1867 396.895 72.86 396.895 72.5C396.895 71.78 396.695 71.2267 396.295 70.84C395.895 70.44 395.408 70.24 394.835 70.24C394.262 70.24 393.775 70.44 393.375 70.84C392.975 71.2267 392.775 71.78 392.775 72.5C392.775 72.86 392.828 73.1867 392.935 73.48C393.042 73.76 393.188 74 393.375 74.2C393.575 74.4 393.795 74.5533 394.035 74.66C394.288 74.7667 394.555 74.82 394.835 74.82ZM395.075 82.34C395.542 82.34 395.962 82.28 396.335 82.16C396.722 82.0533 397.048 81.9067 397.315 81.72C397.582 81.5467 397.788 81.34 397.935 81.1C398.082 80.86 398.155 80.6133 398.155 80.36C398.155 79.9067 397.988 79.5933 397.655 79.42C397.322 79.2467 396.835 79.16 396.195 79.16H394.515C394.328 79.16 394.122 79.1467 393.895 79.12C393.682 79.1067 393.468 79.0667 393.255 79C392.908 79.2533 392.655 79.52 392.495 79.8C392.335 80.08 392.255 80.36 392.255 80.64C392.255 81.16 392.502 81.5733 392.995 81.88C393.502 82.1867 394.195 82.34 395.075 82.34ZM402.433 79V69.28H403.793L403.933 71.04H403.993C404.326 70.4267 404.726 69.94 405.193 69.58C405.673 69.22 406.193 69.04 406.753 69.04C407.14 69.04 407.486 69.1067 407.793 69.24L407.473 70.68C407.313 70.6267 407.166 70.5867 407.033 70.56C406.9 70.5333 406.733 70.52 406.533 70.52C406.12 70.52 405.686 70.6867 405.233 71.02C404.793 71.3533 404.406 71.9333 404.073 72.76V79H402.433ZM411.918 79.24C411.105 79.24 410.425 79 409.878 78.52C409.345 78.04 409.078 77.36 409.078 76.48C409.078 75.4133 409.552 74.6 410.498 74.04C411.445 73.4667 412.958 73.0667 415.038 72.84C415.038 72.5333 415.005 72.2333 414.938 71.94C414.885 71.6467 414.785 71.3867 414.638 71.16C414.492 70.9333 414.285 70.7533 414.018 70.62C413.765 70.4733 413.438 70.4 413.038 70.4C412.478 70.4 411.952 70.5067 411.458 70.72C410.965 70.9333 410.525 71.1733 410.138 71.44L409.498 70.3C409.952 70.0067 410.505 69.7267 411.158 69.46C411.812 69.18 412.532 69.04 413.318 69.04C414.505 69.04 415.365 69.4067 415.898 70.14C416.432 70.86 416.698 71.8267 416.698 73.04V79H415.338L415.198 77.84H415.138C414.672 78.2267 414.172 78.56 413.638 78.84C413.105 79.1067 412.532 79.24 411.918 79.24ZM412.398 77.92C412.865 77.92 413.305 77.8133 413.718 77.6C414.132 77.3733 414.572 77.0467 415.038 76.62V73.92C414.225 74.0267 413.538 74.1533 412.978 74.3C412.432 74.4467 411.985 74.62 411.638 74.82C411.305 75.02 411.058 75.2533 410.898 75.52C410.752 75.7733 410.678 76.0533 410.678 76.36C410.678 76.92 410.845 77.32 411.178 77.56C411.512 77.8 411.918 77.92 412.398 77.92ZM420.556 83.1V69.28H421.916L422.056 70.4H422.116C422.556 70.0267 423.036 69.7067 423.556 69.44C424.09 69.1733 424.643 69.04 425.216 69.04C425.843 69.04 426.396 69.16 426.876 69.4C427.356 69.6267 427.756 69.96 428.076 70.4C428.396 70.8267 428.636 71.3467 428.796 71.96C428.97 72.56 429.056 73.24 429.056 74C429.056 74.8267 428.943 75.5667 428.716 76.22C428.49 76.86 428.183 77.4067 427.796 77.86C427.41 78.3133 426.963 78.66 426.456 78.9C425.95 79.1267 425.416 79.24 424.856 79.24C424.403 79.24 423.95 79.14 423.496 78.94C423.056 78.74 422.61 78.4667 422.156 78.12L422.196 79.82V83.1H420.556ZM424.576 77.86C424.976 77.86 425.343 77.7733 425.676 77.6C426.023 77.4133 426.316 77.16 426.556 76.84C426.81 76.5067 427.003 76.1 427.136 75.62C427.283 75.14 427.356 74.6 427.356 74C427.356 73.4667 427.31 72.98 427.216 72.54C427.123 72.1 426.97 71.7267 426.756 71.42C426.556 71.1 426.29 70.8533 425.956 70.68C425.636 70.5067 425.25 70.42 424.796 70.42C424.383 70.42 423.963 70.5333 423.536 70.76C423.123 70.9867 422.676 71.3133 422.196 71.74V76.84C422.636 77.2133 423.063 77.48 423.476 77.64C423.89 77.7867 424.256 77.86 424.576 77.86ZM432.45 79V64.76H434.09V68.64L434.03 70.64C434.497 70.2 434.983 69.8267 435.49 69.52C435.997 69.2 436.59 69.04 437.27 69.04C438.297 69.04 439.043 69.36 439.51 70C439.99 70.64 440.23 71.5867 440.23 72.84V79H438.59V73.06C438.59 72.14 438.443 71.48 438.15 71.08C437.857 70.6667 437.39 70.46 436.75 70.46C436.243 70.46 435.797 70.5867 435.41 70.84C435.023 71.0933 434.583 71.4667 434.09 71.96V79H432.45ZM448.069 79.24C447.416 79.24 446.802 79.1267 446.229 78.9C445.669 78.66 445.176 78.3267 444.749 77.9C444.336 77.46 444.009 76.9267 443.769 76.3C443.529 75.6733 443.409 74.96 443.409 74.16C443.409 73.36 443.529 72.6467 443.769 72.02C444.022 71.38 444.349 70.84 444.749 70.4C445.162 69.96 445.629 69.6267 446.149 69.4C446.669 69.16 447.209 69.04 447.769 69.04C448.382 69.04 448.929 69.1467 449.409 69.36C449.902 69.5733 450.309 69.88 450.629 70.28C450.962 70.68 451.216 71.16 451.389 71.72C451.562 72.28 451.649 72.9067 451.649 73.6C451.649 73.7733 451.642 73.9467 451.629 74.12C451.629 74.28 451.616 74.42 451.589 74.54H445.029C445.096 75.58 445.416 76.4067 445.989 77.02C446.576 77.62 447.336 77.92 448.269 77.92C448.736 77.92 449.162 77.8533 449.549 77.72C449.949 77.5733 450.329 77.3867 450.689 77.16L451.269 78.24C450.842 78.5067 450.369 78.74 449.849 78.94C449.329 79.14 448.736 79.24 448.069 79.24ZM445.009 73.36H450.209C450.209 72.3733 449.996 71.6267 449.569 71.12C449.156 70.6 448.569 70.34 447.809 70.34C447.462 70.34 447.129 70.4067 446.809 70.54C446.502 70.6733 446.222 70.8733 445.969 71.14C445.716 71.3933 445.502 71.7067 445.329 72.08C445.169 72.4533 445.062 72.88 445.009 73.36ZM454.851 79V69.28H456.211L456.351 71.04H456.411C456.744 70.4267 457.144 69.94 457.611 69.58C458.091 69.22 458.611 69.04 459.171 69.04C459.558 69.04 459.904 69.1067 460.211 69.24L459.891 70.68C459.731 70.6267 459.584 70.5867 459.451 70.56C459.318 70.5333 459.151 70.52 458.951 70.52C458.538 70.52 458.104 70.6867 457.651 71.02C457.211 71.3533 456.824 71.9333 456.491 72.76V79H454.851Z" fill="white"/>
</svg>
